<svg xmlns:xlink="http://www.w3.org/1999/xlink" width="186" xmlns="http://www.w3.org/2000/svg" height="186" id="screenshot-c04ed641-2fbc-8085-8001-8a26627cb22f" viewBox="0 0 186 186" style="-webkit-print-color-adjust: exact;" fill="none" version="1.1"><g id="shape-c04ed641-2fbc-8085-8001-8a26627cb22f" width="700pt" height="700pt" version="1.1" xmlns:xlink="http://www.w3.org/1999/xlink" rx="0" ry="0" style="fill: rgb(0, 0, 0);"><g id="shape-c04ed641-2fbc-8085-8001-8a26627cb231"><g id="fills-c04ed641-2fbc-8085-8001-8a26627cb231"><path rx="0" ry="0" d="M183.906,2.097C182.564,0.755,180.742,0,178.847,0L7.154,0.003C5.258,0.003,3.438,0.759,2.097,2.1C0.752,3.441,0,5.262,0,7.157L0.003,178.846C0.003,182.795,3.208,186,7.157,186L178.846,186C182.795,186,186,182.795,186,178.846L186,7.153C186,5.257,185.246,3.437,183.906,2.097ZZM83.747,98.057L69.44,112.365C68.046,113.763,66.214,114.461,64.382,114.461C62.551,114.461,60.719,113.763,59.325,112.365C56.532,109.572,56.532,105.043,59.325,102.249L61.42,100.153L35.767,100.153C31.818,100.153,28.613,96.949,28.613,93C28.613,89.051,31.818,85.846,35.767,85.846L61.42,85.846L59.324,83.749C56.531,80.956,56.531,76.428,59.324,73.633C62.113,70.84,66.65,70.84,69.44,73.633L83.747,87.941C86.542,90.735,86.542,95.264,83.747,98.057ZZM150.229,100.153L124.576,100.153L126.673,102.25C129.466,105.043,129.466,109.572,126.673,112.366C125.274,113.763,123.445,114.461,121.614,114.461C119.782,114.461,117.954,113.763,116.557,112.365L102.249,98.057C99.456,95.264,99.456,90.735,102.249,87.941L116.557,73.633C119.35,70.84,123.878,70.84,126.673,73.633C129.466,76.426,129.466,80.954,126.673,83.749L124.576,85.846L150.229,85.846C154.178,85.846,157.383,89.051,157.383,93C157.383,96.949,154.178,100.153,150.229,100.153ZZ" style="fill: rgb(114, 115, 254); fill-opacity: 1;"/></g></g></g></svg>